<svg xmlns="http://www.w3.org/2000/svg" xmlns:xlink="http://www.w3.org/1999/xlink" width="349" height="46" viewBox="0 0 349 46">
  <defs>
    <clipPath id="clip-path">
      <rect id="사각형_1" data-name="사각형 1" width="203.333" height="26.64" fill="#fff"/>
    </clipPath>
  </defs>
  <g id="그룹_39" data-name="그룹 39" transform="translate(-858 -29)">
    <g id="그룹_9" data-name="그룹 9" transform="translate(858 39)">
      <g id="그룹_1" data-name="그룹 1" transform="translate(0 0)" clip-path="url(#clip-path)">
        <path id="패스_1" data-name="패스 1" d="M0,26.638V0H17.924A3.668,3.668,0,0,1,20.6,1.129a3.663,3.663,0,0,1,1.129,2.677v7.61a6.624,6.624,0,0,1,3.779,1.13,3.66,3.66,0,0,1,1.129,2.675v7.61a3.754,3.754,0,0,1-3.8,3.806ZM17.924,3.806H3.8v7.61H17.924Zm4.91,11.416H3.8v7.612H22.833Z" transform="translate(0 0)" fill="#fff"/>
        <path id="패스_2" data-name="패스 2" d="M21.451,26.638V0H46.14V3.8H25.256v7.612H46.187v3.806H25.256v7.61H46.14v3.806Z" transform="translate(7.044 0)" fill="#fff"/>
        <path id="패스_3" data-name="패스 3" d="M41.436,26.639,54.756,0h4.91l13.32,26.639H69.178l-4.756-9.514H50l-4.757,9.514ZM62.519,13.32,57.21,3.806,51.9,13.32Z" transform="translate(13.606 0)" fill="#fff"/>
        <path id="패스_4" data-name="패스 4" d="M70.487,26.638a3.665,3.665,0,0,1-3.8-3.806V0h3.8V22.832H90.251V0h3.806V22.832a3.756,3.756,0,0,1-3.806,3.806Z" transform="translate(21.897 0)" fill="#fff"/>
        <path id="패스_5" data-name="패스 5" d="M94.538,24.757V5.729h19.891a3.664,3.664,0,0,1,2.677,1.13,3.664,3.664,0,0,1,1.128,2.675V24.757h-3.8V9.535H98.342V24.757Z" transform="translate(31.043 1.881)" fill="#fff"/>
        <path id="패스_6" data-name="패스 6" d="M117.587,24.757a3.663,3.663,0,0,1-3.8-3.806V9.535a3.76,3.76,0,0,1,1.071-2.675,3.722,3.722,0,0,1,2.734-1.13h12.776a3.659,3.659,0,0,1,2.675,1.13,3.66,3.66,0,0,1,1.129,2.675v7.61H117.587v3.806h16.581v3.806ZM130.364,9.535H117.587v3.806h12.776Z" transform="translate(37.363 1.881)" fill="#fff"/>
        <path id="패스_7" data-name="패스 7" d="M135.565,5.751l9.445,9.609-9.434,9.393h-5.09L140,15.36l-9.486-9.609Z" transform="translate(42.847 1.888)" fill="#fff"/>
        <path id="패스_8" data-name="패스 8" d="M151.581,24.753l-9.445-9.393L151.57,5.75h5.09l-9.518,9.609,9.486,9.393Z" transform="translate(46.673 1.888)" fill="#fff"/>
      </g>
    </g>
    <text id="__Admin" data-name="_ Admin" transform="translate(1070 66)" fill="#fff" font-size="35" font-family="Roboto-Medium, Roboto" font-weight="500"><tspan x="0" y="0">_ ADMIN</tspan></text>
  </g>
</svg>
