<svg id="그룹_73" data-name="그룹 73" xmlns="http://www.w3.org/2000/svg" xmlns:xlink="http://www.w3.org/1999/xlink" width="36.053" height="36.053" viewBox="0 0 36.053 36.053">
  <defs>
    <clipPath id="clip-path">
      <rect id="사각형_35" data-name="사각형 35" width="23.191" height="10.59"/>
    </clipPath>
  </defs>
  <path id="패스_4272" data-name="패스 4272" d="M26.1,0H9.949A9.961,9.961,0,0,0,0,9.949V26.1a9.96,9.96,0,0,0,9.949,9.949H26.1a9.961,9.961,0,0,0,9.95-9.949V9.949A9.961,9.961,0,0,0,26.1,0Zm6.751,26.1A6.758,6.758,0,0,1,26.1,32.854H9.949A6.758,6.758,0,0,1,3.2,26.1V9.949A6.758,6.758,0,0,1,9.949,3.2H26.1a6.758,6.758,0,0,1,6.751,6.751V26.1Z"/>
  <g id="그룹_72" data-name="그룹 72" transform="translate(6.438 13.152)">
    <g id="그룹_71" data-name="그룹 71" transform="translate(0)">
      <g id="그룹_70" data-name="그룹 70" clip-path="url(#clip-path)">
        <path id="패스_4273" data-name="패스 4273" d="M41.316,7.887V3.139A1.142,1.142,0,0,0,40.45,1.9V0a3.024,3.024,0,0,1,2.66,3.2V7.887Z" transform="translate(-34.011)"/>
        <path id="패스_4274" data-name="패스 4274" d="M64.6,18.551a2.616,2.616,0,0,1,.229-1.082,2.922,2.922,0,0,1,.673-.931,3.092,3.092,0,0,1,.983-.613,3.167,3.167,0,0,1,1.154-.213,3.253,3.253,0,0,1,1.173.213,3.016,3.016,0,0,1,.982.613,2.79,2.79,0,0,1,.659.92,2.759,2.759,0,0,1,0,2.186,2.78,2.78,0,0,1-.659.92,3,3,0,0,1-.982.613,3.25,3.25,0,0,1-1.173.213,3.164,3.164,0,0,1-1.154-.213,3.078,3.078,0,0,1-.983-.613,2.916,2.916,0,0,1-.673-.931,2.611,2.611,0,0,1-.229-1.082m1.824-.011a1.207,1.207,0,0,0,.357.879,1.156,1.156,0,0,0,.857.363,1.242,1.242,0,0,0,0-2.484,1.157,1.157,0,0,0-.857.363,1.206,1.206,0,0,0-.357.879" transform="translate(-54.32 -13.212)"/>
        <path id="패스_4275" data-name="패스 4275" d="M5.332,4.2a2.328,2.328,0,0,0-1.7-.837,2.9,2.9,0,0,0-1.853.569H1.759V1H0V8.67H1.759V8.3h.022a2.543,2.543,0,0,0,1.592.5A2.473,2.473,0,0,0,6.018,6.171,3.072,3.072,0,0,0,5.332,4.2M3.825,7.059a1.188,1.188,0,0,1-.872.363A1.157,1.157,0,0,1,2.1,7.059,1.261,1.261,0,0,1,2.1,5.3a1.157,1.157,0,0,1,.857-.363A1.24,1.24,0,0,1,4.188,6.18a1.2,1.2,0,0,1-.363.879" transform="translate(0 -0.84)"/>
        <path id="패스_4276" data-name="패스 4276" d="M112.55,15.339v.419h-.023a2.072,2.072,0,0,0-1.549-.554,2.425,2.425,0,0,0-1.916.807,3.3,3.3,0,0,0-.708,2.228,2.967,2.967,0,0,0,.637,2,2.267,2.267,0,0,0,1.772.763,1.987,1.987,0,0,0,1.765-.755h.023V20.6a1.49,1.49,0,0,1-1.7,1.326v1.392a3.05,3.05,0,0,0,2.589-.6,3.491,3.491,0,0,0,.857-2.739V15.339ZM112.213,19a1.188,1.188,0,0,1-.872.363,1.157,1.157,0,0,1-.857-.363,1.261,1.261,0,0,1,0-1.758,1.157,1.157,0,0,1,.857-.363A1.243,1.243,0,0,1,112.213,19" transform="translate(-91.106 -12.784)"/>
      </g>
    </g>
  </g>
</svg>
