<svg id="free-icon-instagram-logo-87390" xmlns="http://www.w3.org/2000/svg" width="36.053" height="36.053" viewBox="0 0 36.053 36.053">
  <path id="패스_4264" data-name="패스 4264" d="M26.1,0H9.949A9.961,9.961,0,0,0,0,9.949V26.1a9.96,9.96,0,0,0,9.949,9.949H26.1a9.961,9.961,0,0,0,9.95-9.949V9.949A9.961,9.961,0,0,0,26.1,0Zm6.751,26.1A6.758,6.758,0,0,1,26.1,32.854H9.949A6.758,6.758,0,0,1,3.2,26.1V9.949A6.758,6.758,0,0,1,9.949,3.2H26.1a6.758,6.758,0,0,1,6.751,6.751V26.1Z"/>
  <path id="패스_4265" data-name="패스 4265" d="M50.258,40.97a9.29,9.29,0,1,0,9.29,9.29A9.3,9.3,0,0,0,50.258,40.97Zm0,15.38a6.091,6.091,0,1,1,6.091-6.091A6.1,6.1,0,0,1,50.258,56.35Z" transform="translate(-32.231 -32.233)"/>
  <path id="패스_4266" data-name="패스 4266" d="M121.267,28.251a2.344,2.344,0,1,0,1.659.687A2.355,2.355,0,0,0,121.267,28.251Z" transform="translate(-93.561 -22.226)"/>
</svg>
