<svg xmlns="http://www.w3.org/2000/svg" width="30" height="30" viewBox="0 0 30 30">
  <g id="그룹_6021" data-name="그룹 6021" transform="translate(-87 -336)">
    <rect id="사각형_1831" data-name="사각형 1831" width="30" height="30" transform="translate(87 336)" fill="none"/>
    <g id="free-icon-5-stars-3313464" transform="translate(91 340)">
      <path id="패스_4260" data-name="패스 4260" d="M15.81,148.888a1.837,1.837,0,0,0,2.663-1.934l-.919-5.357,3.891-3.793a1.836,1.836,0,0,0-1.017-3.13l-5.377-.782-2.4-4.873a1.837,1.837,0,0,0-3.291,0l-2.4,4.873-5.377.782a1.836,1.836,0,0,0-1.017,3.13L4.447,141.6l-.919,5.357a1.837,1.837,0,0,0,2.663,1.934L11,146.36Z" transform="translate(-0.001 -127.999)" fill="#fad819"/>
    </g>
  </g>
</svg>
